<svg width="30" height="30" viewBox="0 0 30 30" fill="none" xmlns="http://www.w3.org/2000/svg">
<path d="M15.0553 20.4058C15.2114 20.4058 15.3611 20.3438 15.4714 20.2334C15.5818 20.123 15.6438 19.9733 15.6438 19.8173V17.0093C15.6438 16.8532 15.5818 16.7035 15.4714 16.5931C15.3611 16.4828 15.2114 16.4208 15.0553 16.4208C14.8992 16.4208 14.7495 16.4828 14.6392 16.5931C14.5288 16.7035 14.4668 16.8532 14.4668 17.0093V19.8173C14.4668 19.9733 14.5288 20.123 14.6392 20.2334C14.7495 20.3438 14.8992 20.4058 15.0553 20.4058Z" fill="white"/>
<path d="M15.0553 7.88925C15.2114 7.88925 15.3611 7.82725 15.4714 7.71688C15.5818 7.60652 15.6438 7.45683 15.6438 7.30075V4.50622C15.6438 4.35014 15.5818 4.20046 15.4714 4.09009C15.3611 3.97973 15.2114 3.91772 15.0553 3.91772C14.8992 3.91772 14.7495 3.97973 14.6392 4.09009C14.5288 4.20046 14.4668 4.35014 14.4668 4.50622V7.3142C14.4703 7.46794 14.5339 7.6142 14.6438 7.72167C14.7538 7.82914 14.9015 7.88929 15.0553 7.88925Z" fill="white"/>
<path d="M15.0553 14.1543C15.2114 14.1543 15.3611 14.0923 15.4714 13.9819C15.5818 13.8716 15.6438 13.7219 15.6438 13.5658V10.7578C15.6438 10.6017 15.5818 10.452 15.4714 10.3417C15.3611 10.2313 15.2114 10.1693 15.0553 10.1693C14.8992 10.1693 14.7495 10.2313 14.6392 10.3417C14.5288 10.452 14.4668 10.6017 14.4668 10.7578V13.5658C14.4668 13.7219 14.5288 13.8716 14.6392 13.9819C14.7495 14.0923 14.8992 14.1543 15.0553 14.1543Z" fill="white"/>
<path d="M19.229 7.88925C19.3816 7.88755 19.5276 7.82662 19.6361 7.71933C19.7447 7.61204 19.8073 7.46678 19.8108 7.3142V4.50622C19.8108 4.35014 19.7488 4.20046 19.6384 4.09009C19.5281 3.97973 19.3784 3.91772 19.2223 3.91772C19.0662 3.91772 18.9165 3.97973 18.8062 4.09009C18.6958 4.20046 18.6338 4.35014 18.6338 4.50622V7.3142C18.6373 7.46911 18.7018 7.61638 18.8132 7.72404C18.9247 7.8317 19.0741 7.89106 19.229 7.88925Z" fill="white"/>
<path d="M19.229 14.1543C19.3839 14.1525 19.5319 14.0897 19.6408 13.9796C19.7497 13.8694 19.8108 13.7207 19.8108 13.5658V10.7578C19.8108 10.6017 19.7488 10.452 19.6384 10.3417C19.5281 10.2313 19.3784 10.1693 19.2223 10.1693C19.0662 10.1693 18.9165 10.2313 18.8062 10.3417C18.6958 10.452 18.6338 10.6017 18.6338 10.7578V13.5658C18.6338 13.6436 18.6492 13.7207 18.6792 13.7926C18.7092 13.8644 18.7532 13.9296 18.8085 13.9843C18.8639 14.0391 18.9296 14.0823 19.0017 14.1114C19.0739 14.1406 19.1512 14.1552 19.229 14.1543Z" fill="white"/>
<path d="M19.229 20.4058C19.3839 20.404 19.5319 20.3412 19.6408 20.231C19.7497 20.1209 19.8108 19.9722 19.8108 19.8173V17.0093C19.8108 16.8532 19.7488 16.7035 19.6384 16.5931C19.5281 16.4828 19.3784 16.4208 19.2223 16.4208C19.0662 16.4208 18.9165 16.4828 18.8062 16.5931C18.6958 16.7035 18.6338 16.8532 18.6338 17.0093V19.8173C18.6338 19.8951 18.6492 19.9722 18.6792 20.044C18.7092 20.1159 18.7532 20.181 18.8085 20.2358C18.8639 20.2905 18.9296 20.3337 19.0017 20.3629C19.0739 20.3921 19.1512 20.4066 19.229 20.4058Z" fill="white"/>
<path d="M26.1261 22.6421H26.6238C26.7799 22.6421 26.9296 22.5801 27.0399 22.4697C27.1503 22.3594 27.2123 22.2097 27.2123 22.0536C27.2123 21.8975 27.1503 21.7478 27.0399 21.6375C26.9296 21.5271 26.7799 21.4651 26.6238 21.4651H26.1261C25.97 21.4651 25.8203 21.5271 25.71 21.6375C25.5996 21.7478 25.5376 21.8975 25.5376 22.0536C25.5376 22.2097 25.5996 22.3594 25.71 22.4697C25.8203 22.5801 25.97 22.6421 26.1261 22.6421Z" fill="white"/>
<path d="M26.1261 19.2725H26.6238C26.7799 19.2725 26.9296 19.2105 27.0399 19.1001C27.1503 18.9897 27.2123 18.84 27.2123 18.684C27.2123 18.5279 27.1503 18.3782 27.0399 18.2678C26.9296 18.1575 26.7799 18.0955 26.6238 18.0955H26.1261C25.97 18.0955 25.8203 18.1575 25.71 18.2678C25.5996 18.3782 25.5376 18.5279 25.5376 18.684C25.5376 18.84 25.5996 18.9897 25.71 19.1001C25.8203 19.2105 25.97 19.2725 26.1261 19.2725Z" fill="white"/>
<path d="M26.1261 25.9814H26.6238C26.7799 25.9814 26.9296 25.9194 27.0399 25.8091C27.1503 25.6987 27.2123 25.549 27.2123 25.3929C27.2123 25.2369 27.1503 25.0872 27.0399 24.9768C26.9296 24.8664 26.7799 24.8044 26.6238 24.8044H26.1261C25.97 24.8044 25.8203 24.8664 25.71 24.9768C25.5996 25.0872 25.5376 25.2369 25.5376 25.3929C25.5376 25.549 25.5996 25.6987 25.71 25.8091C25.8203 25.9194 25.97 25.9814 26.1261 25.9814Z" fill="white"/>
<path d="M7.96643 15.9332H8.46077C8.61685 15.9332 8.76653 15.8712 8.8769 15.7609C8.98726 15.6505 9.04927 15.5008 9.04927 15.3447C9.04927 15.1886 8.98726 15.039 8.8769 14.9286C8.76653 14.8182 8.61685 14.7562 8.46077 14.7562H7.96643C7.81035 14.7562 7.66066 14.8182 7.5503 14.9286C7.43993 15.039 7.37793 15.1886 7.37793 15.3447C7.37793 15.5008 7.43993 15.6505 7.5503 15.7609C7.66066 15.8712 7.81035 15.9332 7.96643 15.9332Z" fill="white"/>
<path d="M7.96643 12.5636H8.46077C8.61685 12.5636 8.76653 12.5016 8.8769 12.3912C8.98726 12.2809 9.04927 12.1312 9.04927 11.9751C9.04927 11.819 8.98726 11.6693 8.8769 11.559C8.76653 11.4486 8.61685 11.3866 8.46077 11.3866H7.96643C7.81035 11.3866 7.66066 11.4486 7.5503 11.559C7.43993 11.6693 7.37793 11.819 7.37793 11.9751C7.37793 12.1312 7.43993 12.2809 7.5503 12.3912C7.66066 12.5016 7.81035 12.5636 7.96643 12.5636Z" fill="white"/>
<path d="M7.96643 19.2725H8.46077C8.61685 19.2725 8.76653 19.2105 8.8769 19.1001C8.98726 18.9897 9.04927 18.84 9.04927 18.684C9.04927 18.5279 8.98726 18.3782 8.8769 18.2678C8.76653 18.1575 8.61685 18.0955 8.46077 18.0955H7.96643C7.81035 18.0955 7.66066 18.1575 7.5503 18.2678C7.43993 18.3782 7.37793 18.5279 7.37793 18.684C7.37793 18.84 7.43993 18.9897 7.5503 19.1001C7.66066 19.2105 7.81035 19.2725 7.96643 19.2725Z" fill="white"/>
<path d="M29.4079 13.29H23.9063V0.588499C23.9063 0.432419 23.8443 0.282732 23.7339 0.172367C23.6236 0.0620024 23.4739 0 23.3178 0H10.966C10.8129 0.0043774 10.6675 0.0683069 10.5607 0.178201C10.454 0.288095 10.3943 0.435289 10.3944 0.588499V7.93633H5.46106C5.30498 7.93633 5.15529 7.99833 5.04493 8.1087C4.93456 8.21906 4.87256 8.36875 4.87256 8.52483V15.8424C4.87256 15.9985 4.93456 16.1482 5.04493 16.2585C5.15529 16.3689 5.30498 16.4309 5.46106 16.4309C5.61714 16.4309 5.76682 16.3689 5.87719 16.2585C5.98755 16.1482 6.04956 15.9985 6.04956 15.8424V9.11669H10.3944V28.8062H6.02265C5.86657 28.8062 5.71689 28.8682 5.60652 28.9785C5.49616 29.0889 5.43415 29.2386 5.43415 29.3947C5.43415 29.5508 5.49616 29.7004 5.60652 29.8108C5.71689 29.9212 5.86657 29.9832 6.02265 29.9832H27.3969C28.0843 29.9823 28.7435 29.7095 29.2305 29.2244C29.7175 28.7393 29.9929 28.0812 29.9964 27.3938V13.8785C29.9964 13.7224 29.9344 13.5727 29.824 13.4624C29.7137 13.352 29.564 13.29 29.4079 13.29ZM15.6438 28.8062V24.1217H18.6401V28.8062H15.6438ZM22.7293 28.8062H19.8103V23.5332C19.8103 23.3772 19.7483 23.2275 19.638 23.1171C19.5276 23.0067 19.3779 22.9447 19.2218 22.9447H15.0553C14.8992 22.9447 14.7495 23.0067 14.6391 23.1171C14.5288 23.2275 14.4668 23.3772 14.4668 23.5332V28.8062H11.5545V1.16355H22.7293V28.8062ZM28.8194 27.3938C28.8194 27.7714 28.6697 28.1335 28.403 28.4008C28.1363 28.6681 27.7745 28.8187 27.3969 28.8196H23.9097V14.467H28.8194V27.3938Z" fill="white"/>
<path d="M7.12924 21.8383C7.12924 19.4406 3.98834 17.6314 3.85383 17.5574C3.76601 17.5063 3.66622 17.4794 3.56462 17.4794C3.46302 17.4794 3.36323 17.5063 3.27542 17.5574C3.1409 17.6314 0 19.4406 0 21.8383C0 23.9972 1.29133 25.7896 2.97612 26.1327V29.4114C2.97612 29.5675 3.03813 29.7172 3.14849 29.8276C3.25886 29.9379 3.40854 29.9999 3.56462 29.9999C3.7207 29.9999 3.87039 29.9379 3.98075 29.8276C4.09112 29.7172 4.15312 29.5675 4.15312 29.4114V26.1495C5.83791 25.7896 7.12924 23.9972 7.12924 21.8383ZM1.177 21.8383C1.177 20.5772 2.70037 19.3195 3.56462 18.7579C4.42887 19.3195 5.95225 20.5705 5.95225 21.8383C5.95225 23.3213 5.18552 24.5689 4.15312 24.9187V23.5332C4.15312 23.3771 4.09112 23.2274 3.98075 23.117C3.87039 23.0067 3.7207 22.9447 3.56462 22.9447C3.40854 22.9447 3.25886 23.0067 3.14849 23.117C3.03813 23.2274 2.97612 23.3771 2.97612 23.5332V24.9187C1.94373 24.5689 1.177 23.3247 1.177 21.8383Z" fill="white"/>
</svg>
