<svg width="16" height="16" viewBox="0 0 16 16" fill="none" xmlns="http://www.w3.org/2000/svg">
<path d="M0.436662 6.78721C0.153997 6.02369 -0.050691 5.24392 0.0110404 4.41542C0.0500287 3.90533 0.241721 3.46996 0.615359 3.11256C1.02149 2.72918 1.40487 2.3263 1.8045 1.93642C2.32434 1.42307 2.9774 1.42632 3.49724 1.93642C3.8189 2.25157 4.1373 2.57323 4.4557 2.89488C4.76436 3.20354 5.07627 3.51219 5.38492 3.8241C5.92751 4.37318 5.93076 5.01324 5.38817 5.55908C4.99829 5.94896 4.61166 6.34209 4.21528 6.72548C4.11131 6.8262 4.10156 6.91067 4.15679 7.03738C4.41672 7.6612 4.7936 8.21678 5.21597 8.73662C6.06722 9.78281 7.02893 10.712 8.17583 11.4301C8.42276 11.5828 8.69243 11.6965 8.9491 11.8362C9.08231 11.9077 9.17004 11.8849 9.27725 11.7745C9.66389 11.3748 10.0603 10.9817 10.4566 10.5886C10.9765 10.0752 11.6263 10.072 12.1461 10.5886C12.7829 11.2189 13.4165 11.8524 14.0468 12.4892C14.5764 13.0221 14.5732 13.6751 14.0403 14.2112C13.6797 14.5751 13.2995 14.9195 12.9616 15.2996C12.4678 15.852 11.844 16.0339 11.1357 15.9949C10.1025 15.9397 9.15054 15.5953 8.23107 15.1502C6.19068 14.1592 4.44921 12.7849 2.99039 11.0499C1.91172 9.76331 1.02149 8.36623 0.436662 6.78721ZM15.9995 7.95036C15.9995 3.56743 12.4321 0 8.04912 0V1.51404C11.5971 1.51404 14.4854 4.40243 14.4854 7.95036H15.9995ZM11.6458 7.95036H13.1598C13.1598 5.13346 10.866 2.83965 8.04912 2.83965V4.35369C9.01083 4.35369 9.91406 4.72733 10.5931 5.40637C11.2722 6.08542 11.6458 6.98865 11.6458 7.95036Z" fill="white"/>
</svg>
