<svg width="14" height="16" viewBox="0 0 14 16" fill="none" xmlns="http://www.w3.org/2000/svg">
<path fill-rule="evenodd" clip-rule="evenodd" d="M6.51154 0C3.74093 0 1.48828 2.27275 1.48828 5.0761C1.48828 6.02568 1.90651 7.20372 2.51526 8.37879C3.85554 10.9663 6.0881 13.5725 6.0881 13.5725C6.19377 13.696 6.34856 13.7674 6.51154 13.7674C6.67452 13.7674 6.82931 13.696 6.93498 13.5725C6.93498 13.5725 9.16754 10.9663 10.5078 8.37879C11.1166 7.20372 11.5348 6.02568 11.5348 5.0761C11.5348 2.27275 9.28215 0 6.51154 0ZM6.51154 2.97675C5.38186 2.97675 4.46503 3.89358 4.46503 5.02326C4.46503 6.15293 5.38186 7.06977 6.51154 7.06977C7.64121 7.06977 8.55805 6.15293 8.55805 5.02326C8.55805 3.89358 7.64121 2.97675 6.51154 2.97675Z" fill="white"/>
<path fill-rule="evenodd" clip-rule="evenodd" d="M10.0718 12.0013C10.6768 12.1829 11.1754 12.4076 11.52 12.6711C11.7433 12.8407 11.907 13.0067 11.907 13.2091C11.907 13.3282 11.8393 13.4361 11.744 13.544C11.5862 13.7218 11.3518 13.8818 11.0616 14.0307C10.0361 14.5553 8.37805 14.8835 6.51163 14.8835C4.64521 14.8835 2.98716 14.5553 1.96168 14.0307C1.67144 13.8818 1.43702 13.7218 1.27926 13.544C1.184 13.4361 1.11628 13.3282 1.11628 13.2091C1.11628 13.0067 1.28 12.8407 1.50326 12.6711C1.84781 12.4076 2.34642 12.1829 2.95144 12.0013C3.24614 11.9127 3.41358 11.6009 3.32502 11.3062C3.23647 11.0108 2.92465 10.8433 2.62995 10.9319C1.70865 11.2095 0.992745 11.5897 0.562605 12.0102C0.184558 12.3786 0 12.7909 0 13.2091C0 13.7315 0.295442 14.2524 0.896 14.6871C1.94977 15.4491 4.06623 15.9998 6.51163 15.9998C8.95703 15.9998 11.0735 15.4491 12.1273 14.6871C12.7278 14.2524 13.0233 13.7315 13.0233 13.2091C13.0233 12.7909 12.8387 12.3786 12.4607 12.0102C12.0305 11.5897 11.3146 11.2095 10.3933 10.9319C10.0986 10.8433 9.78679 11.0108 9.69824 11.3062C9.60968 11.6009 9.77712 11.9127 10.0718 12.0013Z" fill="white"/>
</svg>
