<svg width="19" height="15" viewBox="0 0 19 15" fill="none" xmlns="http://www.w3.org/2000/svg">
<path d="M11.3361 5.96866C10.1786 6.58188 8.82143 6.58188 7.70378 5.96866L1.43697 2.69816L0 1.9623C0.518908 0.817625 1.67647 0 3.03361 0H15.9664C17.2836 0 18.4412 0.817625 19 1.9623L17.563 2.69816L11.3361 5.96866Z" fill="white"/>
<path d="M7.0142 7.21462C7.78499 7.64475 8.63286 7.85982 9.48073 7.85982C10.3286 7.85982 11.1765 7.64475 11.9473 7.21462L17.4584 4.07463L19 3.21436V11.3869C19 13.3656 17.5355 15.0001 15.7627 15.0001H3.23732C1.4645 15.0001 0 13.3656 0 11.3869V3.21436L1.54158 4.07463L7.0142 7.21462Z" fill="white"/>
</svg>
