<svg version="1.2" xmlns="http://www.w3.org/2000/svg" viewBox="0 0 25 25" width="25" height="25">
	<title>icon-about-1</title>
	<style>
		.s0 { fill: #006135 } 
		.s1 { fill: #59ab46 } 
	</style>
	<path class="s0" d="m3.3 25h18.4c0.7 0 1.2-0.6 1.2-1.2v-14.1l0.2 0.1c0.2 0.2 0.6 0.2 0.9 0.2 0.3-0.1 0.6-0.3 0.8-0.6 0.4-0.6 0.2-1.3-0.4-1.7l-11.2-7.5c-0.4-0.3-1-0.3-1.4 0l-11.2 7.5c-0.6 0.4-0.8 1.1-0.4 1.7 0.2 0.3 0.5 0.5 0.8 0.6q0.1 0 0.2 0 0.4 0 0.7-0.2l0.2-0.1v14.1c0 0.6 0.5 1.2 1.2 1.2zm18.8-1.2c0 0.2-0.2 0.4-0.4 0.4h-18.4c-0.2 0-0.4-0.2-0.4-0.4v-14.7l9.6-6.3 9.6 6.3zm-20.6-14.6q-0.2 0.1-0.3 0-0.2 0-0.3-0.1c-0.1-0.2-0.1-0.5 0.1-0.7l11.3-7.4q0.1-0.1 0.2-0.1 0.1 0 0.2 0.1l11.3 7.4c0.2 0.2 0.2 0.5 0.1 0.7q-0.1 0.1-0.3 0.1-0.1 0.1-0.3 0l-10.8-7.2c-0.1 0-0.3 0-0.4 0z"/>
	<path class="s1" d="m9 7.9c-0.5-0.5-1.2-0.5-1.7 0l-2.4 2.3c-0.4 0.5-0.4 1.3 0 1.7l3.8 3.8-2.3 2.3q-0.1 0.1-0.1 0.2l-1 3.4c-0.1 0.2 0 0.5 0.1 0.7 0.2 0.2 0.4 0.3 0.7 0.3q0.1 0 0.2 0l3.4-1q0.1 0 0.2-0.1l2.3-2.3 3.8 3.8c0.5 0.5 1.2 0.5 1.7 0l2.4-2.4c0.4-0.4 0.4-1.2 0-1.7l-3.8-3.8 3.2-3.2c0.3-0.3 0.5-0.7 0.5-1.1 0-0.5-0.2-0.9-0.5-1.2l-1.2-1.2c-0.3-0.3-0.7-0.4-1.2-0.4-0.4 0-0.8 0.1-1.1 0.4l-3.2 3.2zm-1.5 12.5q-0.3-0.3-0.8-0.5l0.2-0.9 1.5 0.6 0.6 1.4-0.9 0.3q-0.2-0.5-0.6-0.9zm1.7-1l6.2-6.2 0.8 0.8-6.5 6.6zm5.3-8.3l0.9-0.8 2.3 2.3-0.9 0.9zm0.3 1.4l-6.2 6.2-1.2-0.5 6.6-6.6zm-9.3-1.1c-0.2-0.2-0.2-0.4 0-0.6l2.3-2.3c0.2-0.2 0.4-0.2 0.6 0l0.8 0.8-0.8 0.9q-0.2 0.2-0.1 0.4 0 0.3 0.3 0.3 0.2 0.1 0.4-0.1l0.8-0.9 0.9 0.9-0.6 0.6q-0.2 0.2-0.1 0.4 0.1 0.2 0.3 0.3 0.2 0 0.4-0.1l0.6-0.6 0.8 0.9-2.9 2.8zm0.6 10.5l0.4-1.2c0.4 0.2 0.7 0.5 0.8 0.8zm10.4-5.2l-0.5 0.6q-0.2 0.2-0.2 0.4 0.1 0.3 0.3 0.3 0.3 0.1 0.5-0.1l0.5-0.6 0.9 0.9-0.9 0.9q-0.1 0.1-0.1 0.4 0.1 0.2 0.3 0.3 0.2 0 0.4-0.1l0.9-0.9 0.8 0.9c0.2 0.1 0.2 0.4 0 0.5l-2.3 2.3c-0.1 0.2-0.4 0.2-0.5 0l-3.8-3.7 2.9-2.9zm0.6-7.8q0.3 0 0.5 0.2l1.2 1.2c0.3 0.3 0.3 0.8 0 1.1l-0.6 0.6-2.3-2.3 0.6-0.6q0.2-0.2 0.6-0.2z"/>
</svg>